<svg id="Layer_1" data-name="Layer 1" xmlns="http://www.w3.org/2000/svg" xmlns:xlink="http://www.w3.org/1999/xlink" viewBox="0 0 937.37 429.02"><defs><style>.cls-1{fill:url(#linear-gradient);}.cls-2{fill:url(#linear-gradient-2);}.cls-3{fill:url(#linear-gradient-3);}.cls-4{fill:#fff;}.cls-5{fill:url(#linear-gradient-4);}.cls-6{fill:#fdfffc;}.cls-7{fill:none;}</style><linearGradient id="linear-gradient" x1="538.16" y1="108.98" x2="561.63" y2="108.98" gradientUnits="userSpaceOnUse"><stop offset="0" stop-color="#ff0a00"/><stop offset="1" stop-color="#ff2801"/></linearGradient><linearGradient id="linear-gradient-2" x1="538.16" y1="182.5" x2="561.63" y2="182.5" xlink:href="#linear-gradient"/><linearGradient id="linear-gradient-3" x1="418.74" y1="644.09" x2="546.53" y2="644.09" gradientTransform="translate(88.48 -42.24)" xlink:href="#linear-gradient"/><linearGradient id="linear-gradient-4" x1="71.32" y1="540" x2="468.95" y2="540" xlink:href="#linear-gradient"/></defs><path d="M691.09,585.18l-6.37,39.24h13.47l2,13.69H683l-5.7,29.54H654.15l28-131.92ZM686,535.73h17.91l28,131.92H709.3l-14.66-84Z" transform="translate(-71.32 -325.49)"/><path d="M742.32,667.65V535.73h23.39V667.65Zm27.09-16.36h24.87v16.36H769.41Z" transform="translate(-71.32 -325.49)"/><path d="M804.28,667.65V535.73h23.39V667.65Zm27.09-131.92h26v16.36h-26Zm0,55.3h17.4v16.66h-17.4Zm0,60.26h26v16.36h-26Z" transform="translate(-71.32 -325.49)"/><path d="M868.76,667.65V535.73h23.39V667.65Zm27.09-76.32h7.33a8.64,8.64,0,0,0,6.07-2.11,14.35,14.35,0,0,0,3.55-5.15,24,24,0,0,0,1.67-6.36,48.92,48.92,0,0,0,.41-5.78,53.5,53.5,0,0,0-.37-5.77A24.75,24.75,0,0,0,913,560a13.54,13.54,0,0,0-3.26-4.93,7.69,7.69,0,0,0-5.51-2h-8.37V535.73h3.26a61.78,61.78,0,0,1,16.62,2A32.31,32.31,0,0,1,928,544a26.68,26.68,0,0,1,7.58,10.74,41.93,41.93,0,0,1,2.59,15.54q0,4.51-.37,9.18a33.51,33.51,0,0,1-2,9,25.06,25.06,0,0,1-4.92,8.07,27,27,0,0,1-9.33,6.4l18.73,64.7H916.43l-15.32-61.52h-5.26Z" transform="translate(-71.32 -325.49)"/><path d="M943.38,535.73h64.7v17.62h-64.7Zm44.19,21.32v110.6H964.1V557.05Z" transform="translate(-71.32 -325.49)"/><path d="M498,518.36V386.45H516.1V518.36Zm55.82,0H537.87L519.8,453.89V386.52h1.34Zm-6.37-41.6,22.36-90.24h1.56v67.37l-16.29,54ZM575,518.36V386.45h18.13V518.36Z" transform="translate(-71.32 -325.49)"/><rect class="cls-1" x="538.16" y="60.96" width="23.47" height="96.04"/><rect class="cls-2" x="538.16" y="172" width="23.47" height="21"/><path d="M680.81,520.88A33.42,33.42,0,0,1,666.23,517a32.73,32.73,0,0,1-10.29-8.81A40,40,0,0,1,649.61,496a60.07,60.07,0,0,1-2.7-14.14l23.47-4.74q.14,4.14.62,8.33a40.4,40.4,0,0,0,1.63,7.7,19.73,19.73,0,0,0,3.11,6,9.21,9.21,0,0,0,5.07,3.33ZM672,457.37l-5.33-5q-3.69-3.25-7.21-6.74a49.17,49.17,0,0,1-6.3-7.62,37.47,37.47,0,0,1-4.44-9.22,36.54,36.54,0,0,1-1.66-11.43A35.94,35.94,0,0,1,649.43,404a29.51,29.51,0,0,1,6.7-10.25,31.49,31.49,0,0,1,10.36-6.77A41.47,41.47,0,0,1,679.85,384v18a9.74,9.74,0,0,0-4.29,1.37,10.62,10.62,0,0,0-3.07,2.85,12,12,0,0,0-1.82,3.92,18.33,18.33,0,0,0-.59,4.67,21.85,21.85,0,0,0,.85,6.22,23.31,23.31,0,0,0,2.37,5.4,31.64,31.64,0,0,0,3.55,4.78,53.15,53.15,0,0,0,4.41,4.33l2.81,2.62c1.19,1.12,2.42,2.26,3.7,3.45Zm18.36-13.18,2.74,2.44q4.81,4.44,9.07,9.07a61,61,0,0,1,7.4,9.81,49.27,49.27,0,0,1,5,11.18,44.59,44.59,0,0,1,1.85,13.17,30.47,30.47,0,0,1-2.52,12.59,29.48,29.48,0,0,1-6.84,9.66,31.9,31.9,0,0,1-10.15,6.33A36.62,36.62,0,0,1,684.52,521V502.89a10,10,0,0,0,4.25-1.11,8.15,8.15,0,0,0,2.85-2.59,10.77,10.77,0,0,0,1.59-3.74,20.79,20.79,0,0,0,.49-4.62,24.08,24.08,0,0,0-1.37-8,37.09,37.09,0,0,0-3.63-7.44,51.68,51.68,0,0,0-5.15-6.77c-1.92-2.15-3.9-4.16-5.92-6l-3-2.74Zm-6.81-60.26a32.88,32.88,0,0,1,12.62,2.7,32.07,32.07,0,0,1,10.11,6.92,33.56,33.56,0,0,1,6.85,10.33A36.36,36.36,0,0,1,716,416.72v2.74l-23.77,3.7c0-.69,0-1.4.08-2.14s.07-1.51.07-2.3a40.35,40.35,0,0,0-.66-5.18,24.33,24.33,0,0,0-1.52-5,13.62,13.62,0,0,0-2.63-4,8.79,8.79,0,0,0-4-2.37Z" transform="translate(-71.32 -325.49)"/><path d="M758.84,520.88A33.34,33.34,0,0,1,744.26,517,32.73,32.73,0,0,1,734,508.22,39.59,39.59,0,0,1,727.64,496a60.08,60.08,0,0,1-2.71-14.14l23.47-4.74q.15,4.14.63,8.33a38.92,38.92,0,0,0,1.63,7.7,19.51,19.51,0,0,0,3.11,6,9.21,9.21,0,0,0,5.07,3.33ZM750,457.37l-5.33-5q-3.71-3.25-7.22-6.74a49.11,49.11,0,0,1-6.29-7.62,37.47,37.47,0,0,1-4.44-9.22,36.53,36.53,0,0,1-1.67-11.43A35.94,35.94,0,0,1,727.45,404a29.65,29.65,0,0,1,6.7-10.25,31.6,31.6,0,0,1,10.36-6.77A41.53,41.53,0,0,1,757.88,384v18a9.83,9.83,0,0,0-4.3,1.37,10.88,10.88,0,0,0-3.07,2.85,12,12,0,0,0-1.81,3.92,17.9,17.9,0,0,0-.59,4.67A21.85,21.85,0,0,0,749,421a22.49,22.49,0,0,0,2.37,5.4,31,31,0,0,0,3.55,4.78,53,53,0,0,0,4.4,4.33l2.82,2.62c1.18,1.12,2.41,2.26,3.7,3.45Zm18.36-13.18,2.74,2.44q4.82,4.44,9.07,9.07a62.16,62.16,0,0,1,7.4,9.81,49.71,49.71,0,0,1,5,11.18,44.59,44.59,0,0,1,1.85,13.17,30.47,30.47,0,0,1-2.52,12.59,29.51,29.51,0,0,1-6.85,9.66,31.86,31.86,0,0,1-10.14,6.33,36.67,36.67,0,0,1-12.4,2.51V502.89a10,10,0,0,0,4.26-1.11,8.15,8.15,0,0,0,2.85-2.59,10.77,10.77,0,0,0,1.59-3.74,20.81,20.81,0,0,0,.48-4.62,24.08,24.08,0,0,0-1.37-8,36.05,36.05,0,0,0-3.63-7.44,51.6,51.6,0,0,0-5.14-6.77q-2.9-3.22-5.92-6l-3-2.74Zm-6.81-60.26a32.88,32.88,0,0,1,12.62,2.7,32.14,32.14,0,0,1,10.1,6.92,33.21,33.21,0,0,1,6.85,10.33A36.14,36.14,0,0,1,794,416.72v2.74l-23.76,3.7c0-.69,0-1.4.07-2.14s.08-1.51.08-2.3a38.71,38.71,0,0,0-.67-5.18,23.14,23.14,0,0,0-1.52-5,13.59,13.59,0,0,0-2.62-4,8.79,8.79,0,0,0-4-2.37Z" transform="translate(-71.32 -325.49)"/><path d="M806.88,386.45h23.47V518.36H806.88Z" transform="translate(-71.32 -325.49)"/><path d="M864.48,386.37l3.18,7.7V518.36H847.53v-132ZM871.36,403l23.4,51.08v47.15l-23.4-53.15Zm27.1,107.56V386.37h19.47v132H901.57Z" transform="translate(-71.32 -325.49)"/><path d="M969,520.73a6.9,6.9,0,0,1-1,.08h-1A34,34,0,0,1,955.42,519a28.35,28.35,0,0,1-8.81-5.07,30.93,30.93,0,0,1-6.29-7.44,43.65,43.65,0,0,1-4.11-9,54.23,54.23,0,0,1-2.22-9.77,73.81,73.81,0,0,1-.67-9.66V429.53a82.59,82.59,0,0,1,1.74-17.36A40,40,0,0,1,941,397.92a30.28,30.28,0,0,1,11.06-9.81q6.88-3.66,17.25-4v18.28a11.57,11.57,0,0,0-6.29,2.52,15,15,0,0,0-3.85,5,22,22,0,0,0-1.92,6.44,46.75,46.75,0,0,0-.52,6.92v58.85a48.27,48.27,0,0,0,.48,6.74,22.36,22.36,0,0,0,1.81,6.29,14,14,0,0,0,3.74,4.89,12,12,0,0,0,6.26,2.51Zm3.62-18.13a10.94,10.94,0,0,0,6.48-2.41,14.53,14.53,0,0,0,3.85-5.14,23.78,23.78,0,0,0,1.85-6.59,51.53,51.53,0,0,0,.48-6.89v-13.1h-9.55v-17h32.94v66.84H993.21l-3.4-10a22.68,22.68,0,0,1-7.18,7.59,28.88,28.88,0,0,1-10,4.25ZM973,384q9.86.3,16.51,3.74a29.13,29.13,0,0,1,10.74,9.33,39,39,0,0,1,5.84,13.81,77.71,77.71,0,0,1,1.78,17.1v6.29H985.29v-7.4q0-4.08-.33-8.26A30,30,0,0,0,983.4,411a14.54,14.54,0,0,0-3.7-5.85,11,11,0,0,0-6.7-2.81Z" transform="translate(-71.32 -325.49)"/><rect class="cls-3" x="507.23" y="565.03" width="127.79" height="73.64" transform="translate(-205.87 -160.01) rotate(-14.77)"/><path class="cls-4" d="M533.8,604.39l1.64,17,5.59-1.47,2.32,5.46-7.11,1.87.86,12.87-9.6,2.53-2.82-57.73Zm-7.52-19.94,7.42-2,26,51.62-9.36,2.46L535.1,603.35Z" transform="translate(-71.32 -325.49)"/><path class="cls-4" d="M556.64,576.41l2.16,2.85,13.58,51.51L564,633l-14.42-54.7Zm4.67,6.15,15.28,18.62,5.15,19.54-15.5-19.47Zm23,41.62L570.72,572.7l8.07-2.13,14.42,54.7-6.78,1.79Z" transform="translate(-71.32 -325.49)"/><path class="cls-4" d="M600.33,623.4l-14.41-54.67,9.69-2.56L610,620.84Zm9.41-9.87.27-.07a20.11,20.11,0,0,0,3.64-1.27,5.15,5.15,0,0,0,2.06-1.64,4.06,4.06,0,0,0,.68-2.31,12.22,12.22,0,0,0-.48-3.29l-7.48-28.38a8.29,8.29,0,0,0-1.16-2.64,4.28,4.28,0,0,0-1.84-1.49,6.19,6.19,0,0,0-2.6-.41,15.5,15.5,0,0,0-3.43.56l-.43.11-1.83-6.93.37-.1a29.35,29.35,0,0,1,8.78-1.16,12.12,12.12,0,0,1,6.15,1.84,12.4,12.4,0,0,1,4.13,4.71,36.09,36.09,0,0,1,2.77,7.46l5,18.87A53.88,53.88,0,0,1,625.5,603a21.13,21.13,0,0,1,.24,4.82,12.64,12.64,0,0,1-1,4.12,10.68,10.68,0,0,1-2.46,3.43,16.26,16.26,0,0,1-4.21,2.82,33.65,33.65,0,0,1-6.26,2.22l-.27.08Z" transform="translate(-71.32 -325.49)"/><path class="cls-5" d="M270.13,325.49c109.8,0,198.82,89,198.82,198.81a198.54,198.54,0,0,1-12.16,68.62l.65-.6c-26.16,86.85-108.83,162.19-108.83,162.19l-22.26-39.46a199.07,199.07,0,0,1-56.22,8.07c-109.8,0-198.81-89-198.81-198.82S160.33,325.49,270.13,325.49Z" transform="translate(-71.32 -325.49)"/><rect class="cls-6" x="114.96" y="85.24" width="29.85" height="217.15"/><polygon class="cls-6" points="206.84 302.38 180.64 302.38 150.9 196.25 150.9 85.36 153.1 85.36 206.84 302.38"/><polygon class="cls-6" points="196.35 233.9 233.16 85.36 235.72 85.36 235.72 196.25 208.91 285.2 196.35 233.9"/><path d="M388.14,530.08c-.18,5.5-5.12,9.52-9.74,12.52-1.59,1-3.3,2.18-3.89,4-1.36,4.1,3.73,7.23,5.59,11.15a8.17,8.17,0,0,1-1.87,9.32c-1.83,1.66-4.61,2.76-5,5.19-.56,3.28,3.21,5.39,3.73,8.67,1,6.35-7,9.3-5.77,17.5,1.12,7.33,4.16,13.11,2.12,19.88-2.2,7.35-8.59,11.83-21.95,11.32-3.27-.13-6-1.32-8.74-1.64V410.73c11.74,11.89,18.28,28.09,19,47.77.54,14.91-2.31,26.23,3.47,40,2.8,6.64,7.56,12.3,13,17C382.68,519.52,388.34,523.94,388.14,530.08Z" transform="translate(-71.32 -325.49)"/><rect x="252.05" y="315.08" width="29.85" height="28.71"/><rect class="cls-6" x="241.81" y="85.24" width="29.85" height="217.26"/><rect class="cls-6" x="241.81" y="315.08" width="29.85" height="28.71"/><line class="cls-7" x1="562.42" y1="170" x2="562.42" y2="166"/></svg>